<?xml version="1.0" encoding="utf-8"?>

<!DOCTYPE svg PUBLIC "-//W3C//DTD SVG 1.1//EN" "http://www.w3.org/Graphics/SVG/1.1/DTD/svg11.dtd">
<svg version="1.1" id="Layer_1" xmlns="http://www.w3.org/2000/svg" xmlns:xlink="http://www.w3.org/1999/xlink" x="0px" y="0px"
	 viewBox="0 0 2610 1138" enable-background="new 0 0 2610 1138" xml:space="preserve">
<g>
	<g id="Layer_x0020_1">
		<path fill="#B87333" d="M907.707,881.159c-9.398,75.228-134.15,57.701-119.487-25.391
			c13.914-78.832,148.581-124.78,225.531-50.782c105.909,91.795,58.478,301.704-168.774,301.704
			c-171.165,0-240.874-180.238-201.634-282.287l-94.095,79.16C440.089,993.744,300.77,862.87,381.966,776.608
			c57.699-62.514,134.325-55.462,147.864-11.452c8.282,33.64-19.649,59.246-44.808,59.246c-25.119,0-29.797-31.365-53.769-31.365
			c-21.708,0-31.365,31.885-31.365,40.327c0,36.658,37.64,53.769,62.731,53.769c73.84,0,155.577-125.579,265.857-201.634
			c153.647-109.377,330.375-60.359,391.318,46.301c0,0.997,0.497,2.49,1.494,4.481c-63.526-46.201-97.288-71.692-183.711-71.692
			c-113.126,0-250.922,55.681-250.922,203.127c0,174.101,183.228,254.391,298.716,138.904
			c52.406-52.406,39.612-138.306,1.494-164.294c-26.557-18.748-50.142-28.068-67.958-0.747
			C911.441,853.031,907.707,866.223,907.707,881.159L907.707,881.159z M907.707,256.841c0,26.873,9.804,56.756,38.833,56.756
			c9.958,0,24.644-6.721,44.06-20.164c34.924-24.177,45.391-111.435-5.228-162.054c-73.41-73.41-186.086-72.424-250.175,4.481
			c-58.21,69.848-60.686,162.128-26.138,227.771c47.158,89.601,188.872,119.057,273.325,107.538
			c68.452-9.336,102.072-42.681,137.409-70.945c0,1.99,0,3.984,0,5.974c-14.137,19.801-17.577,41.29-65.717,67.212
			C763.386,646.597,588.338,250.867,462.62,250.867c-21.877,0-74.638,22.502-59.743,67.212
			c11.425,29.375,31.537,38.026,59.743,7.467c15.259-17.805,40.912-11.451,57.503,6.721c20.837,22.823,10.359,57.375-10.952,67.212
			c-64.95,29.225-151.101-37.913-151.101-94.843c0-31.535,35.081-95.589,112.019-95.589c55.684,0,68.617,23.967,140.397,76.173
			c10.952,7.965,22.404,17.426,34.353,28.378c-41.238-82.46,19.63-282.287,200.14-282.287
			c233.002,0,271.636,211.713,168.774,301.704c-82.46,73.626-208.927,28.069-225.531-50.782
			C773.386,203.102,898.481,178.383,907.707,256.841L907.707,256.841z M1145.187,640.692
			c-53.583-72.728-257.962-58.25-409.242-58.25c-111.134,0-188.539-6.185-307.678,73.682c-29.459,22.661-55.39,59.861-74.679,91.608
			c-12.945,51.029-33.356,76.669-61.237,76.669c-30.069,0-35.846-11.735-35.846-39.83c0-79.862,129.235-154.646,196.656-191.675
			c-96.946,30.913-171.396,60.542-214.329,113.512c-16.407,21.971-47.458,60.49-73.436,60.49c-10.206,0-35.846-14.509-35.846-36.842
			c0-66.883,158.847-115.793,235.986-146.122c-31.294,2.555-210.19,4.726-279.3,104.551C46.587,659.274,25,602.71,25,569
			c0-31.763,20.029-89.126,61.237-119.487c66.151,97.292,234.114,100.862,279.3,104.551l-116.5-46.301
			c-84.991-31.868-157.847-97.962-97.083-134.422c16.49-9.894,30.766-1.175,47.048,12.696
			c59.397,50.602,32.6,87.146,253.162,159.066c-249.667-141.86-200.316-224.097-176.243-231.505
			c45.257-15.106,67.728,27.692,77.667,74.679c20.207,32.842,36.909,64.837,73.932,91.855
			c98.427,71.828,194.343,75.426,306.931,75.426c151.353,0,354.302,16.992,410.735-58.25h31.365
			c58.568,61.118,87.802,68.705,128.448,68.705v5.974c-52.141,0-83.365,19.698-128.448,68.705L1145.187,640.692L1145.187,640.692z"
			/>
	</g>
	<g id="Layer_x0020_1_1_">
		<path fill="#B87333" d="M1702.293,881.159c0-14.936-3.734-28.128-11.202-39.58c-17.816-27.321-41.4-18.001-67.958,0.747
			c-38.119,25.988-50.912,111.888,1.494,164.294c115.488,115.488,298.716,35.197,298.716-138.904
			c0-147.446-137.796-203.127-250.922-203.127c-86.423,0-120.185,25.492-183.711,71.692c0.996-1.99,1.494-3.484,1.494-4.481
			c60.944-106.661,237.671-155.679,391.318-46.301c110.28,76.055,192.017,201.634,265.857,201.634
			c25.091,0,62.731-17.111,62.731-53.769c0-8.442-9.657-40.327-31.365-40.327c-23.972,0-28.65,31.365-53.769,31.365
			c-25.159,0-53.09-25.606-44.808-59.246c13.539-44.01,90.166-51.063,147.864,11.452c81.197,86.263-58.123,217.136-167.281,126.955
			l-94.095-79.16c39.24,102.049-30.469,282.287-201.634,282.287c-227.252,0-274.683-209.909-168.774-301.704
			c76.95-73.997,211.617-28.05,225.531,50.782C1836.442,938.859,1711.691,956.387,1702.293,881.159L1702.293,881.159z
			 M1702.293,256.841c9.226-78.458,134.322-53.74,119.487,25.391c-16.604,78.851-143.071,124.408-225.531,50.782
			c-102.862-89.991-64.228-301.704,168.774-301.704c180.51,0,241.378,199.828,200.14,282.287
			c11.949-10.952,23.4-20.413,34.353-28.378c71.78-52.205,84.713-76.173,140.397-76.173c76.938,0,112.019,64.055,112.019,95.589
			c0,56.93-86.152,124.068-151.101,94.843c-21.312-9.837-31.79-44.388-10.952-67.212c16.591-18.172,42.243-24.526,57.503-6.721
			c28.206,30.559,48.318,21.908,59.743-7.467c14.895-44.709-37.866-67.212-59.743-67.212c-125.718,0-300.767,395.73-591.459,222.544
			c-48.14-25.921-51.581-47.411-65.717-67.212c0-1.99,0-3.984,0-5.974c35.337,28.265,68.957,61.609,137.409,70.945
			c84.453,11.519,226.168-17.937,273.325-107.538c34.548-65.643,32.072-157.923-26.138-227.771
			c-64.089-76.905-176.765-77.891-250.175-4.481c-50.619,50.619-40.151,137.877-5.228,162.054
			c19.416,13.443,34.102,20.164,44.06,20.164C1692.488,313.598,1702.293,283.715,1702.293,256.841L1702.293,256.841z
			 M1464.813,640.692h-31.365c-45.083-49.008-76.307-68.705-128.448-68.705v-5.974c40.646,0,69.88-7.588,128.448-68.705h31.365
			c56.433,75.242,259.382,58.25,410.735,58.25c112.589,0,208.504-3.598,306.931-75.426c37.023-27.019,53.726-59.014,73.932-91.855
			c9.939-46.987,32.41-89.785,77.667-74.679c24.073,7.407,73.424,89.644-176.243,231.505
			c220.563-71.92,193.765-108.464,253.162-159.066c16.282-13.871,30.559-22.59,47.048-12.696
			c60.764,36.46-12.092,102.555-97.083,134.422l-116.5,46.301c45.186-3.689,213.149-7.26,279.3-104.551
			C2564.971,479.874,2585,537.237,2585,569c0,33.71-21.587,90.274-61.237,119.487c-69.11-99.825-248.006-101.997-279.3-104.551
			c77.139,30.329,235.986,79.238,235.986,146.122c0,22.333-25.64,36.842-35.846,36.842c-25.977,0-57.028-38.519-73.436-60.49
			c-42.933-52.97-117.383-82.598-214.329-113.512c67.421,37.029,196.656,111.813,196.656,191.675c0,28.095-5.777,39.83-35.846,39.83
			c-27.882,0-48.292-25.64-61.237-76.669c-19.289-31.747-45.22-68.947-74.679-91.608c-119.139-79.867-196.544-73.682-307.678-73.682
			C1722.775,582.442,1518.396,567.964,1464.813,640.692L1464.813,640.692z"/>
	</g>
</g>
</svg>
